#!OML:ASF E:/inclinewalkrobotboard/Project1/Captureday1/Session1/subject1.ASF
:FULLY-SPECIFIED
:DEGREES
176
root 0 0 0 -3.432734886546655 -2.1490603367890992 1.9371351735956766
lowerback 10.625447675322391 -0.5342570977811153 -3.2754686874522436
upperback 0.45734958984812646 -1.0536061491347237 0.9895661374456396
thorax -5.483084214054223 -0.4291723220896777 3.039884031708334
lowerneck -16.99706779854923 -2.3708407526978954 -2.1194350377920665
upperneck 18.689731220652416 -2.7933153200426775 0.2157511040738176
head 8.678042982266698 -1.428634688534802 0.07479542655633747
rclavicle -1.7044013958943655E-15 -4.1859892666373066E-16
rhumerus -34.37886146562704 -22.370168160757 -78.589564737118
rradius 19.661508796545846
rwrist 7.389822313706705
rhand -17.933360109143408 25.790850944541305
rfingers 7.125020000000024
rthumb 8.32982106461984 -4.0236615998992065
lclavicle -1.415253262195506E-15 -9.212716943259576E-16
lhumerus -31.994054202697807 2.2010655065408264 79.40487756432947
lradius 27.07512614508022
lwrist 4.934282444078205
lhand -27.196075708950765 24.88077757619436
lfingers 7.125020000000009
lthumb -0.6222346749343117 54.85428200389916
rfemur -34.65101675156615 -0.17274885317859034 18.73275548338736
rtibia 54.48438757525532
rfoot -6.962988593358041 -8.955455568424773
rtoes 1.1844926104701734
lfemur 5.966877715599744 -3.1241360885633815 -28.926203539721953
ltibia 20.195803886309452
lfoot -18.672125708683545 0.8550491570195908
ltoes -1.4089720346235843
177
root 0 0 0 -2.1771529934956604 -1.0700806693910496 2.4171013338099736
lowerback 10.448985946709195 -0.9797188712142962 -4.017514334587046
upperback 0.5893447510385069 -1.7091635729054253 1.2002048536458165
thorax -5.171707478083362 -0.7373994748555435 3.754498295728615
lowerneck -16.6357175443767 -2.3449802924549896 -2.04764123353592
upperneck 19.14669148052094 -2.6709920994128833 -0.07545442176555772
head 8.733110073630026 -1.4052031231182283 -0.023206421141708122
rclavicle -3.5463455116196887E-16 -2.6887511081963283E-16
rhumerus -34.5734191293825 -22.323791108249686 -78.47867500853953
rradius 20.075806252690967
rwrist 6.926395908199436
rhand -18.055135278302878 25.511117322355815
rfingers 7.125020000000026
rthumb 8.212902230259449 -4.32248954585161
lclavicle -1.8702313940673297E-16 -1.034825512956049E-15
lhumerus -28.52081872914085 -1.3494663374335831 79.78886246418395
lradius 30.277004481608138
lwrist 6.826166374666736
lhand -27.742830762790064 25.92979953418972
lfingers 7.125020000000002
lthumb -1.1543399655722304 55.92988005788097
rfemur -34.80487810356346 1.0570869209812703 17.586592508337368
rtibia 44.64709779906901
rfoot -7.4471994308687774 -10.196366213167147
rtoes -0.5037675385546272
lfemur 6.613086735863427 -2.896498928724897 -29.026436962953735
ltibia 20.008726113983442
lfoot -18.593233377159862 0.5792577832230159
ltoes -1.5111851072656428
178
root 0 0 0 -1.4696325249525437 -0.25845055375303705 2.7180307247263937
lowerback 10.564900273847575 -1.222961831270982 -4.512530607638762
upperback 0.6014312122016011 -2.067116122500499 1.3594763107334231
thorax -5.159762472017284 -0.9046654296782939 4.235205725702114
lowerneck -17.14134239139263 -2.465459191571669 -2.1580730814796185
upperneck 19.436590058502006 -2.7907984742710377 -0.20293117136208094
head 8.937650623739652 -1.4780666604316186 -0.07633794150093853
rclavicle 2.873707766933993E-16 2.8366937096670225E-16
rhumerus -34.829837395258096 -22.709346207547004 -78.12375239707157
rradius 20.214495140979714
rwrist 6.292955720613317
rhand -18.154424283891675 25.151643083330406
rfingers 7.125020000000027
rthumb 8.118164027265 -4.694227678798967
lclavicle 4.7510595044615654E-17 -4.759346614116736E-16
lhumerus -26.881160613405683 -2.878643278673119 80.17597467712119
lradius 31.521814994027736
lwrist 7.374944159022483
lhand -27.830287312756393 26.13223484175101
lfingers 7.125019999999998
lthumb -1.2440849130125358 56.14232889822688
rfemur -34.96759375937948 3.909238130050572 19.139214878344966
rtibia 31.774643634739313
rfoot -9.244486720005348 -12.130775353777654
rtoes -1.562948176161355
lfemur 7.776717577806504 -2.8888544186426808 -28.893320440394845
ltibia 19.774662657192003
lfoot -17.645880353091172 -0.25764588171435365
ltoes -2.2028305279890965
179
root 0 0 0 -1.3005434722565496 0.18702794308085036 2.629623876283232
lowerback 10.609666312513522 -1.3431251338300685 -4.522055363737595
upperback 0.5873115831634185 -2.2137570447183785 1.4818370412620752
thorax -5.169246640089877 -0.9783266099146808 4.384889795842133
lowerneck -17.554705003762145 -2.528534553516365 -2.2440899036244195
upperneck 19.50324608875157 -2.8805021936788235 -0.1865238201537438
head 9.046843722482249 -1.5162055707568127 -0.07586589835566504
rclavicle -4.4264729491114054E-16 6.309536088512842E-16
rhumerus -35.115996270535014 -23.256125459495788 -77.79741582345623
rradius 19.81532895624168
rwrist 6.266211008071438
rhand -18.13258104961508 25.066636963069442
rfingers 7.125020000000026
rthumb 8.139453015711322 -4.7722807829564715
lclavicle -8.845848588579519E-16 -8.281045003426376E-17
lhumerus -26.480188046198442 -3.3365652240251684 80.41052949517321
lradius 31.813355453959556
lwrist 7.4771444289763895
lhand -27.836297269237274 26.01433242021052
lfingers 7.125019999999996
lthumb -1.2517451269621755 56.02360521086726
rfemur -34.178785074423516 5.533656797837984 20.22396648478528
rtibia 24.847104163828547
rfoot -9.97411917349879 -12.802931599315912
rtoes -2.4950104816846768
lfemur 9.93330123071975 -3.1425725297439984 -28.594089396161046
ltibia 19.62690898739172
lfoot -15.670954214007114 -1.9011538817865472
ltoes -3.5801738388960054
